<?xml version="1.0" standalone="no"?>
<!DOCTYPE svg PUBLIC "-//W3C//DTD SVG 20010904//EN"
 "http://www.w3.org/TR/2001/REC-SVG-20010904/DTD/svg10.dtd">
<svg version="1.0" xmlns="http://www.w3.org/2000/svg"
 width="515.000000pt" height="515.000000pt" viewBox="0 0 515.000000 515.000000"
 preserveAspectRatio="xMidYMid meet">
<metadata>
Created by potrace 1.14, written by Peter Selinger 2001-2017
</metadata>
<g transform="translate(0.000000,515.000000) scale(0.100000,-0.100000)"
fill="#000000" stroke="none">
<path d="M2350 5077 c-3 -3 -34 -7 -70 -11 -56 -5 -126 -16 -255 -41 -147 -28
-389 -112 -556 -193 -192 -92 -326 -180 -549 -358 -13 -11 -80 -75 -148 -144
-284 -286 -487 -624 -616 -1025 -17 -54 -61 -239 -70 -295 -3 -19 -8 -45 -10
-57 -3 -12 -8 -53 -11 -90 -4 -37 -9 -79 -11 -93 -6 -32 -6 -388 -1 -415 3
-11 8 -51 12 -90 6 -58 24 -162 51 -293 12 -60 80 -268 116 -357 235 -575 688
-1055 1243 -1319 155 -74 333 -138 475 -172 8 -2 58 -12 110 -23 86 -18 122
-24 215 -38 67 -9 456 -11 540 -2 322 34 610 119 900 267 475 241 864 638
1105 1127 109 221 202 508 225 690 4 28 8 57 10 65 26 100 27 566 1 710 -3 14
-7 42 -10 63 -4 21 -15 79 -26 129 -221 1013 -1073 1804 -2095 1944 -22 3 -51
8 -65 11 -31 6 -504 15 -510 10z"/>
</g>
</svg>
